<?xml version="1.0" encoding="utf-8"?>
<!-- Generator: Adobe Illustrator 16.0.0, SVG Export Plug-In . SVG Version: 6.00 Build 0)  -->
<!DOCTYPE svg PUBLIC "-//W3C//DTD SVG 1.0//EN" "http://www.w3.org/TR/2001/REC-SVG-20010904/DTD/svg10.dtd">
<svg version="1.0" id="Layer_1" xmlns="http://www.w3.org/2000/svg" xmlns:xlink="http://www.w3.org/1999/xlink" x="0px" y="0px"
	 width="140px" height="50px" viewBox="0 0 140 50" enable-background="new 0 0 140 50" xml:space="preserve">
<g>
	<g>
		<polygon fill="#FF0000" points="27.125,4.18 28.758,2.37 28.634,4.805 31.068,4.68 29.259,6.313 31.068,7.947 28.634,7.823 
			28.758,10.257 27.125,8.447 25.491,10.257 25.615,7.823 23.181,7.947 24.991,6.313 23.181,4.68 25.615,4.805 25.491,2.37 		"/>
		<path fill="#FCEE21" d="M29.187,11.291l-2.062-2.284l-2.062,2.284l0.157-3.072l-3.072,0.156l2.284-2.062l-2.284-2.062l3.073,0.158
			l-0.157-3.073l2.062,2.284l2.062-2.284l-0.157,3.073l3.073-0.158l-2.284,2.062l2.284,2.062l-3.073-0.156L29.187,11.291z
			 M27.125,7.888l1.206,1.335l-0.092-1.795l1.796,0.092l-1.335-1.206l1.335-1.205L28.238,5.2l0.092-1.796l-1.206,1.335l-1.205-1.335
			L26.011,5.2l-1.795-0.092l1.335,1.205L24.215,7.52l1.796-0.092l-0.091,1.795L27.125,7.888z"/>
	</g>
	<circle fill="#1A1A1A" cx="23.5" cy="32.375" r="15.375"/>
	<path fill="#4D4D4D" d="M27,17.79c0,0-0.868,1.147-3.5,1.147c-2.298,0-3.5-1.147-3.5-1.147V14h7V17.79z"/>
	
		<ellipse transform="matrix(0.9946 0.1034 -0.1034 0.9946 2.9962 -1.7826)" fill="#333333" cx="18.687" cy="28" rx="7.063" ry="7.75"/>
	
		<ellipse transform="matrix(0.9256 0.3784 -0.3784 0.9256 10.862 -3.9563)" fill="#FFFFFF" cx="15.497" cy="25.657" rx="2.555" ry="3.958"/>
	<path fill="#333333" d="M28,17.79c0,0-1.439,0.556-4.5,0.556c-2.672,0-4.5-0.556-4.5-0.556v-4.146c0,0,0.226-0.937,4.403-0.937
		c4.371,0,4.597,0.937,4.597,0.937V17.79z"/>
	<path fill="#4D4D4D" d="M27.674,13.806c0,0-1.914,0.385-4.274,0.385s-4.275-0.385-4.275-0.385s1.914,0.58,4.275,0.58
		S27.674,13.717,27.674,13.806z"/>
	<path fill="none" stroke="#000000" stroke-linecap="round" stroke-linejoin="round" stroke-miterlimit="10" d="M23.727,12.688
		c0,0-1.001-2.771,1.735-2.959c2.736-0.188,2.525-2.208,1.597-3.383"/>
</g>
<g>
	<g>
		<polygon fill="#FF0000" points="74.125,4.18 75.758,2.37 75.634,4.805 78.068,4.68 76.259,6.313 78.068,7.947 75.634,7.823 
			75.758,10.257 74.125,8.447 72.491,10.257 72.615,7.823 70.181,7.947 71.99,6.313 70.181,4.68 72.615,4.805 72.491,2.37 		"/>
		<path fill="#FBB03B" d="M76.187,11.291l-2.062-2.284l-2.062,2.284l0.157-3.072l-3.072,0.156l2.284-2.062l-2.285-2.062l3.073,0.158
			l-0.157-3.073l2.062,2.284l2.062-2.284l-0.157,3.073l3.073-0.158l-2.284,2.062l2.283,2.062l-3.072-0.156L76.187,11.291z
			 M74.125,7.888l1.205,1.335l-0.092-1.795l1.797,0.092l-1.336-1.206l1.335-1.205L75.238,5.2l0.092-1.796l-1.205,1.335L72.92,3.404
			L73.011,5.2l-1.796-0.092l1.336,1.205L71.215,7.52l1.796-0.092L72.92,9.223L74.125,7.888z"/>
	</g>
	<circle fill="#1A1A1A" cx="70.5" cy="32.375" r="15.375"/>
	<path fill="#4D4D4D" d="M74,17.79c0,0-0.868,1.147-3.5,1.147c-2.298,0-3.5-1.147-3.5-1.147V14h7V17.79z"/>
	
		<ellipse transform="matrix(0.9946 0.1034 -0.1034 0.9946 3.2483 -6.6438)" fill="#333333" cx="65.687" cy="28" rx="7.063" ry="7.75"/>
	
		<ellipse transform="matrix(0.9256 0.3784 -0.3784 0.9256 14.3574 -21.7425)" fill="#FFFFFF" cx="62.497" cy="25.657" rx="2.555" ry="3.958"/>
	<path fill="#333333" d="M75,17.79c0,0-1.439,0.556-4.5,0.556c-2.672,0-4.5-0.556-4.5-0.556v-4.146c0,0,0.226-0.937,4.403-0.937
		c4.371,0,4.597,0.937,4.597,0.937V17.79z"/>
	<path fill="#4D4D4D" d="M74.674,13.806c0,0-1.913,0.385-4.274,0.385s-4.275-0.385-4.275-0.385s1.914,0.58,4.275,0.58
		S74.674,13.717,74.674,13.806z"/>
	<path fill="none" stroke="#000000" stroke-linecap="round" stroke-linejoin="round" stroke-miterlimit="10" d="M70.727,12.688
		c0,0-1.001-2.771,1.735-2.959c2.736-0.188,2.525-2.208,1.597-3.383"/>
</g>
<g>
	<g>
		<polygon fill="#FF931E" points="121.125,4.137 122.758,2.327 122.634,4.762 125.068,4.637 123.259,6.271 125.068,7.904 
			122.634,7.78 122.758,10.214 121.125,8.404 119.491,10.214 119.615,7.78 117.182,7.904 118.99,6.271 117.182,4.637 119.615,4.762 
			119.491,2.327 		"/>
		<path fill="#F15A24" d="M123.187,11.248l-2.062-2.284l-2.062,2.284l0.157-3.072l-3.072,0.156l2.284-2.062l-2.285-2.062
			l3.073,0.158l-0.157-3.073l2.062,2.284l2.062-2.284l-0.157,3.073l3.073-0.158l-2.284,2.062l2.283,2.062l-3.072-0.156
			L123.187,11.248z M121.125,7.845l1.205,1.335l-0.092-1.795l1.797,0.092l-1.336-1.206l1.335-1.205l-1.796,0.092l0.092-1.796
			l-1.205,1.335l-1.205-1.335l0.091,1.796l-1.796-0.092l1.336,1.205l-1.336,1.206l1.796-0.092L119.92,9.18L121.125,7.845z"/>
	</g>
	<circle fill="#1A1A1A" cx="117.5" cy="32.332" r="15.375"/>
	<path fill="#4D4D4D" d="M121,17.747c0,0-0.868,1.147-3.5,1.147c-2.298,0-3.5-1.147-3.5-1.147V14h7V17.747z"/>
	
		<ellipse transform="matrix(0.9946 0.1034 -0.1034 0.9946 3.4958 -11.5047)" fill="#333333" cx="112.687" cy="27.957" rx="7.063" ry="7.75"/>
	
		<ellipse transform="matrix(0.9256 0.3784 -0.3784 0.9256 17.8366 -39.532)" fill="#FFFFFF" cx="109.497" cy="25.614" rx="2.555" ry="3.958"/>
	<path fill="#333333" d="M122,17.747c0,0-1.439,0.556-4.5,0.556c-2.672,0-4.5-0.556-4.5-0.556v-4.146c0,0,0.226-0.937,4.403-0.937
		c4.371,0,4.597,0.937,4.597,0.937V17.747z"/>
	<path fill="#4D4D4D" d="M121.674,13.763c0,0-1.913,0.385-4.273,0.385c-2.361,0-4.275-0.385-4.275-0.385s1.914,0.58,4.275,0.58
		C119.761,14.343,121.674,13.674,121.674,13.763z"/>
	<path fill="none" stroke="#000000" stroke-linecap="round" stroke-linejoin="round" stroke-miterlimit="10" d="M117.727,12.645
		c0,0-1.002-2.771,1.735-2.959c2.736-0.188,2.525-2.208,1.597-3.383"/>
</g>
</svg>
